# xmcd
#
# Track frame offsets:
#	150
#	36255
#	49414
#	61336
#	72744
#	84669
#	97325
#	110833
#	125334
#	144221
#	163093
#	178283
#	192862
#	208207
#	218493
#	235639
#	257032
#	268416
#	281003
#	293240
#
# Disc length: 4091 seconds
#
# Revision: 1
# Processed by: cddbd v1.5.2PL0 Copyright (c) Steve Scherf et al.
# Submitted via: audiograbber 1.83.01
#
DISCID=4a0ff914
DTITLE=Reg Poole - The Way It Used To Be ,Before the GST
DYEAR=1900
DGENRE=Country
TTITLE0=The Man From Snowy River
TTITLE1=Mother ,Queen Of My Heart
TTITLE2=The Stone Outside Dan Murphys Door
TTITLE3=Riding Down The Valley
TTITLE4=Two Little Girls In Blue
TTITLE5=MissinG IN Action
TTITLE6=Red River Valley
TTITLE7=It Makes No Difference Now
TTITLE8=The Black Sheep
TTITLE9=The Old Rogged Cross
TTITLE10=Little Boy Lost
TTITLE11=By The Silvery Moonlight Trail
TTITLE12=Galway Bay
TTITLE13=When I First Saw The Lovelight In Your Eyes
TTITLE14=Australias Outback Hero
TTITLE15=With The Cattle
TTITLE16=The Wanderer
TTITLE17=Slim Dusty You're Australia
TTITLE18=World War 3
TTITLE19=The GST Song
EXTD=
EXTT0=
EXTT1=
EXTT2=
EXTT3=
EXTT4=
EXTT5=
EXTT6=
EXTT7=
EXTT8=
EXTT9=
EXTT10=
EXTT11=
EXTT12=
EXTT13=
EXTT14=
EXTT15=
EXTT16=
EXTT17=
EXTT18=
EXTT19=
PLAYORDER=
